<?xml version="1.0" encoding="utf-8"?>
<!-- Generator: Adobe Illustrator 25.2.3, SVG Export Plug-In . SVG Version: 6.00 Build 0)  -->
<svg version="1.1" id="Warstwa_1" xmlns="http://www.w3.org/2000/svg" xmlns:xlink="http://www.w3.org/1999/xlink" x="0px" y="0px"
	 viewBox="0 0 219.09 266.03" style="enable-background:new 0 0 219.09 266.03;" xml:space="preserve">
<style type="text/css">
	.st0{fill:#0041D2;}
	.st1{fill:#FFFFFF;}
</style>
<g>
	<g>
		<g>
			<polygon class="st1" points="138.67,78.6 138.67,71.64 125.19,71.64 125.19,78.16 125.19,78.59 124.76,78.59 116.93,78.59 
				116.5,78.59 116.5,78.16 116.5,71.64 102.59,71.64 102.59,78.16 102.59,78.59 102.15,78.59 94.33,78.59 93.89,78.59 93.89,78.16 
				93.89,71.64 80.42,71.64 80.42,78.6 85.2,78.6 85.63,78.6 85.63,79.03 85.63,84.68 133.45,84.68 133.45,79.03 133.45,78.6 
				133.89,78.6 			"/>
			<rect x="123.45" y="112.93" class="st1" width="6.96" height="6.96"/>
			<rect x="109.54" y="112.93" class="st1" width="6.96" height="6.96"/>
			<rect x="116.5" y="105.98" class="st1" width="6.96" height="6.96"/>
			<rect x="123.45" y="158.14" class="st1" width="6.96" height="6.96"/>
			<rect x="109.54" y="158.14" class="st1" width="6.96" height="6.96"/>
			<rect x="116.5" y="151.19" class="st1" width="6.96" height="6.96"/>
			<path class="st1" d="M116.5,170.91c-2.34,0.77-4.64,1.15-6.96,1.15c-5.75,0-10.43-4.68-10.43-10.43s4.68-10.43,10.43-10.43v-6.96
				c-9.6,0-17.39,7.78-17.39,17.39c0,9.6,7.78,17.39,17.39,17.39c5.69,0,10.43-1.74,13.91-3.48l0-10.43h-6.96
				C116.5,165.1,116.5,170.71,116.5,170.91z"/>
			<path class="st1" d="M123.45,119.89h-6.96c0,0,0,9.09,0,9.29c-2.9,0.99-5.75,1.22-8.69,1.15c-3.84,0-6.96-3.11-6.96-6.96
				c0-2.27,0-14.85,0-17.39h-6.96c0,2.63,0,15.05,0,17.39c0,7.68,6.23,13.91,13.91,13.91c6.08,0.27,11.69-1.42,15.65-3.48
				c0,0,0-2.35,0-5.22h0L123.45,119.89z"/>
			<path class="st1" d="M109.54,194.39c-10.15,0-19.69-3.95-26.86-11.13c-7.18-7.18-11.13-16.72-11.13-26.86V94.07h75.98v62.33
				c0,10.15-3.95,19.69-11.13,26.86C129.23,190.44,119.69,194.39,109.54,194.39z M74.51,97.02v59.38
				c0,19.32,15.72,35.04,35.04,35.04s35.04-15.72,35.04-35.04V97.02H74.51z"/>
		</g>
	</g>
</g>
</svg>
