<?xml version="1.0" encoding="utf-8"?>
<!-- Generator: Adobe Illustrator 25.2.3, SVG Export Plug-In . SVG Version: 6.00 Build 0)  -->
<svg version="1.1" id="Warstwa_1" xmlns="http://www.w3.org/2000/svg" xmlns:xlink="http://www.w3.org/1999/xlink" x="0px" y="0px"
	 viewBox="0 0 219.09 266.03" style="enable-background:new 0 0 219.09 266.03;" xml:space="preserve">
<style type="text/css">
	.st0{fill:#0041D2;}
	.st1{fill:#FFFFFF;}
</style>
<g>
	<polygon points="125.19,73.03 125.19,79.98 116.5,79.98 116.5,73.03 102.59,73.03 102.59,79.98 93.89,79.98 93.89,73.03 
		79.98,73.03 79.98,79.98 85.2,79.98 85.2,86.94 133.89,86.94 133.89,79.98 139.1,79.98 139.1,73.03 	"/>
	<g>
		<rect x="116.5" y="158.23" width="6.96" height="6.96"/>
		<g>
			<path d="M73.03,95.63v60.86c0,20.17,16.35,36.51,36.51,36.51c20.17,0,36.51-16.35,36.51-36.51V95.63H73.03z M130.41,165.18h-6.96
				v5.22h0c0,2.87,0,5.22,0,5.22c-3.48,1.74-8.22,3.48-13.91,3.48c-9.6,0-17.39-7.78-17.39-17.39c0-9.6,7.78-17.39,17.39-17.39v6.96
				c-5.75,0-10.43,4.68-10.43,10.43s4.68,10.43,10.43,10.43c2.32,0,4.62-0.38,6.96-1.15c0-0.19,0-0.39,0-0.59h0v-5.22h-6.96v-6.96
				h6.96v-6.96h6.96v6.96h6.96V165.18z M130.41,119.98h-6.96l0,8.69h0c0,2.87,0,5.22,0,5.22c-3.96,2.06-9.57,3.75-15.65,3.48
				c-7.68,0-13.91-6.23-13.91-13.91c0-2.33,0-14.75,0-17.39h6.96c0,2.54,0,15.12,0,17.39c0,3.84,3.11,6.96,6.96,6.95
				c2.94,0.08,5.79-0.15,8.69-1.15c0-0.19,0-9.28,0-9.29h-6.96v-6.96h6.96v-6.96h6.96v6.96h6.96V119.98z"/>
			<rect x="116.5" y="113.02" width="6.96" height="6.95"/>
		</g>
	</g>
</g>
</svg>
